<svg viewBox="0.00397669724770644 0.0038106857142856665 32.003669724770646 8.017142857142856" xmlns:xlink="http://www.w3.org/1999/xlink" version="1.1" xmlns="http://www.w3.org/2000/svg" style="max-height: 500px" width="32.003669724770646" height="8.017142857142856"><g transform="matrix(1,0,0,1,0,0)"><rect style="fill: none; stroke: none; stroke-width: 1px; stroke-linecap: butt;" class="base" y="8" x="-0.9" height="0.5" width="7.8"/><polygon style="fill: rgb(63, 81, 181); stroke: none; stroke-width: 0.1px; stroke-linecap: butt;" transform="matrix(1,0,0,1,1,6)" class="L" points="0,1 2,1 2,0 3,0 3,2 0,2"/><polygon style="fill: rgb(244, 67, 54); stroke: none; stroke-width: 0.1px; stroke-linecap: butt;" transform="matrix(1,0,0,1,0,5)" class="O" points="0,0 2,0 2,2 0,2"/><polygon style="fill: rgb(0, 188, 212); stroke: none; stroke-width: 0.1px; stroke-linecap: butt;" transform="matrix(6.123233995736766e-17,1,-1,6.123233995736766e-17,1,1)" class="I" points="4,1 4,0 0,0 0,1"/><polygon style="fill: rgb(255, 87, 34); stroke: none; stroke-width: 0.1px; stroke-linecap: butt;" transform="matrix(1,0,0,1,0,0)" class="Z" points="0,0 2,0 2,1 3,1 3,2 1,2 1,1 0,1"/><polygon style="fill: rgb(76, 175, 80); stroke: none; stroke-width: 0.1px; stroke-linecap: butt;" transform="matrix(-1.8369701987210297e-16,-1,1,-1.8369701987210297e-16,4,8)" class="J" points="0,0 1,0 1,1 3,1 3,2 0,2"/><polygon style="fill: rgb(139, 195, 74); stroke: none; stroke-width: 0.1px; stroke-linecap: butt;" transform="matrix(6.123233995736766e-17,1,-1,6.123233995736766e-17,5,4)" class="S" points="1,0 3,0 3,1 2,1 2,2 0,2 0,1 1,1"/><polygon style="fill: rgb(255, 193, 7); stroke: none; stroke-width: 0.1px; stroke-linecap: butt;" transform="matrix(-1,1.2246467991473532e-16,-1.2246467991473532e-16,-1,5,2)" class="T" points="1,0 2,0 2,1 3,1 3,2 0,2 0,1 1,1"/></g><g transform="matrix(1,0,0,1,7,0)"><rect style="fill: none; stroke: none; stroke-width: 1px; stroke-linecap: butt;" class="base" y="8" x="-0.9" height="0.5" width="6.8"/><polygon style="fill: rgb(63, 81, 181); stroke: none; stroke-width: 0.1px; stroke-linecap: butt;" transform="matrix(6.123233995736766e-17,1,-1,6.123233995736766e-17,5,5)" class="L" points="0,1 2,1 2,0 3,0 3,2 0,2"/><polygon style="fill: rgb(255, 87, 34); stroke: none; stroke-width: 0.1px; stroke-linecap: butt;" transform="matrix(6.123233995736766e-17,1,-1,6.123233995736766e-17,4,3)" class="Z" points="0,0 2,0 2,1 3,1 3,2 1,2 1,1 0,1"/><polygon style="fill: rgb(76, 175, 80); stroke: none; stroke-width: 0.1px; stroke-linecap: butt;" transform="matrix(-1.8369701987210297e-16,-1,1,-1.8369701987210297e-16,2.220446049250313e-16,8)" class="J" points="0,0 1,0 1,1 3,1 3,2 0,2"/><polygon style="fill: rgb(255, 193, 7); stroke: none; stroke-width: 0.1px; stroke-linecap: butt;" transform="matrix(6.123233995736766e-17,1,-1,6.123233995736766e-17,3,2)" class="T" points="1,0 2,0 2,1 3,1 3,2 0,2 0,1 1,1"/><polygon style="fill: rgb(0, 188, 212); stroke: none; stroke-width: 0.1px; stroke-linecap: butt;" transform="matrix(6.123233995736766e-17,1,-1,6.123233995736766e-17,5,3)" class="I" points="4,1 4,0 0,0 0,1"/><polygon style="fill: rgb(244, 67, 54); stroke: none; stroke-width: 0.1px; stroke-linecap: butt;" transform="matrix(1,0,0,1,3,1)" class="O" points="0,0 2,0 2,2 0,2"/><polygon style="fill: rgb(139, 195, 74); stroke: none; stroke-width: 0.1px; stroke-linecap: butt;" transform="matrix(1,0,0,1,1,0)" class="S" points="1,0 3,0 3,1 2,1 2,2 0,2 0,1 1,1"/></g><g transform="matrix(1,0,0,1,13,0)"><rect style="fill: none; stroke: none; stroke-width: 1px; stroke-linecap: butt;" class="base" y="8" x="-0.9" height="0.5" width="8.8"/><polygon style="fill: rgb(255, 193, 7); stroke: none; stroke-width: 0.1px; stroke-linecap: butt;" transform="matrix(6.123233995736766e-17,1,-1,6.123233995736766e-17,7,5)" class="T" points="1,0 2,0 2,1 3,1 3,2 0,2 0,1 1,1"/><polygon style="fill: rgb(63, 81, 181); stroke: none; stroke-width: 0.1px; stroke-linecap: butt;" transform="matrix(-1.8369701987210297e-16,-1,1,-1.8369701987210297e-16,4,5)" class="L" points="0,1 2,1 2,0 3,0 3,2 0,2"/><polygon style="fill: rgb(76, 175, 80); stroke: none; stroke-width: 0.1px; stroke-linecap: butt;" transform="matrix(6.123233995736766e-17,1,-1,6.123233995736766e-17,5,1)" class="J" points="0,0 1,0 1,1 3,1 3,2 0,2"/><polygon style="fill: rgb(255, 87, 34); stroke: none; stroke-width: 0.1px; stroke-linecap: butt;" transform="matrix(1,0,0,1,4,0)" class="Z" points="0,0 2,0 2,1 3,1 3,2 1,2 1,1 0,1"/><polygon style="fill: rgb(244, 67, 54); stroke: none; stroke-width: 0.1px; stroke-linecap: butt;" transform="matrix(1,0,0,1,0,6)" class="O" points="0,0 2,0 2,2 0,2"/><polygon style="fill: rgb(0, 188, 212); stroke: none; stroke-width: 0.1px; stroke-linecap: butt;" transform="matrix(6.123233995736766e-17,1,-1,6.123233995736766e-17,2,2)" class="I" points="4,1 4,0 0,0 0,1"/><polygon style="fill: rgb(139, 195, 74); stroke: none; stroke-width: 0.1px; stroke-linecap: butt;" transform="matrix(6.123233995736766e-17,1,-1,6.123233995736766e-17,3,0)" class="S" points="1,0 3,0 3,1 2,1 2,2 0,2 0,1 1,1"/></g><g transform="matrix(1,0,0,1,21,0)"><rect style="fill: none; stroke: none; stroke-width: 1px; stroke-linecap: butt;" class="base" y="8" x="-0.9" height="0.5" width="6.8"/><polygon style="fill: rgb(0, 188, 212); stroke: none; stroke-width: 0.1px; stroke-linecap: butt;" transform="matrix(1,0,0,1,1,7)" class="I" points="4,1 4,0 0,0 0,1"/><polygon style="fill: rgb(255, 193, 7); stroke: none; stroke-width: 0.1px; stroke-linecap: butt;" transform="matrix(6.123233995736766e-17,1,-1,6.123233995736766e-17,2,5)" class="T" points="1,0 2,0 2,1 3,1 3,2 0,2 0,1 1,1"/><polygon style="fill: rgb(139, 195, 74); stroke: none; stroke-width: 0.1px; stroke-linecap: butt;" transform="matrix(6.123233995736766e-17,1,-1,6.123233995736766e-17,3,4)" class="S" points="1,0 3,0 3,1 2,1 2,2 0,2 0,1 1,1"/><polygon style="fill: rgb(63, 81, 181); stroke: none; stroke-width: 0.1px; stroke-linecap: butt;" transform="matrix(-1,1.2246467991473532e-16,-1.2246467991473532e-16,-1,5,5)" class="L" points="0,1 2,1 2,0 3,0 3,2 0,2"/><polygon style="fill: rgb(255, 87, 34); stroke: none; stroke-width: 0.1px; stroke-linecap: butt;" transform="matrix(6.123233995736766e-17,1,-1,6.123233995736766e-17,3,1)" class="Z" points="0,0 2,0 2,1 3,1 3,2 1,2 1,1 0,1"/><polygon style="fill: rgb(244, 67, 54); stroke: none; stroke-width: 0.1px; stroke-linecap: butt;" transform="matrix(1,0,0,1,0,0)" class="O" points="0,0 2,0 2,2 0,2"/><polygon style="fill: rgb(76, 175, 80); stroke: none; stroke-width: 0.1px; stroke-linecap: butt;" transform="matrix(-1,1.2246467991473532e-16,-1.2246467991473532e-16,-1,5,2)" class="J" points="0,0 1,0 1,1 3,1 3,2 0,2"/></g><g transform="matrix(1,0,0,1,27,0)"><rect style="fill: none; stroke: none; stroke-width: 1px; stroke-linecap: butt;" class="base" y="8" x="-0.9" height="0.5" width="6.8"/><polygon style="fill: rgb(63, 81, 181); stroke: none; stroke-width: 0.1px; stroke-linecap: butt;" transform="matrix(1,0,0,1,2,6)" class="L" points="0,1 2,1 2,0 3,0 3,2 0,2"/><polygon style="fill: rgb(255, 87, 34); stroke: none; stroke-width: 0.1px; stroke-linecap: butt;" transform="matrix(6.123233995736766e-17,1,-1,6.123233995736766e-17,5,4)" class="Z" points="0,0 2,0 2,1 3,1 3,2 1,2 1,1 0,1"/><polygon style="fill: rgb(255, 193, 7); stroke: none; stroke-width: 0.1px; stroke-linecap: butt;" transform="matrix(-1,1.2246467991473532e-16,-1.2246467991473532e-16,-1,3,8)" class="T" points="1,0 2,0 2,1 3,1 3,2 0,2 0,1 1,1"/><polygon style="fill: rgb(139, 195, 74); stroke: none; stroke-width: 0.1px; stroke-linecap: butt;" transform="matrix(1,0,0,1,2,3)" class="S" points="1,0 3,0 3,1 2,1 2,2 0,2 0,1 1,1"/><polygon style="fill: rgb(76, 175, 80); stroke: none; stroke-width: 0.1px; stroke-linecap: butt;" transform="matrix(-1.8369701987210297e-16,-1,1,-1.8369701987210297e-16,1.0000000000000002,4)" class="J" points="0,0 1,0 1,1 3,1 3,2 0,2"/><polygon style="fill: rgb(244, 67, 54); stroke: none; stroke-width: 0.1px; stroke-linecap: butt;" transform="matrix(1,0,0,1,0,1)" class="O" points="0,0 2,0 2,2 0,2"/><polygon style="fill: rgb(0, 188, 212); stroke: none; stroke-width: 0.1px; stroke-linecap: butt;" transform="matrix(1,0,0,1,1,0)" class="I" points="4,1 4,0 0,0 0,1"/></g></svg>