<svg viewBox="-0.08655804480651752 -0.02538860103626961 60.17311608961304 8.09119170984456" xmlns:xlink="http://www.w3.org/1999/xlink" version="1.1" xmlns="http://www.w3.org/2000/svg" style="max-height: 500px" width="60.17311608961304" height="8.09119170984456"><g transform="matrix(1,0,0,1,0,0)"><rect style="fill: none; stroke: none; stroke-width: 1px; stroke-linecap: butt; --darkreader-inline-fill: none; --darkreader-inline-stroke: none;" class="base" y="8" x="-0.9" height="0.5" width="7.8" data-darkreader-inline-fill="" data-darkreader-inline-stroke=""/><polygon style="fill: rgb(63, 81, 181); stroke: none; stroke-width: 0.1px; stroke-linecap: butt; --darkreader-inline-fill: var(--darkreader-text-3f51b5, #6d95cc); --darkreader-inline-stroke: none;" transform="matrix(1,0,0,1,3,6)" class="L" points="0,1 2,1 2,0 3,0 3,2 0,2" data-darkreader-inline-fill="" data-darkreader-inline-stroke=""/><polygon style="fill: rgb(255, 87, 34); stroke: none; stroke-width: 0.1px; stroke-linecap: butt; --darkreader-inline-fill: var(--darkreader-text-ff5722, #ff6331); --darkreader-inline-stroke: none;" transform="matrix(6.123233995736766e-17,1,-1,6.123233995736766e-17,6,4)" class="Z" points="0,0 2,0 2,1 3,1 3,2 1,2 1,1 0,1" data-darkreader-inline-fill="" data-darkreader-inline-stroke=""/><polygon style="fill: rgb(139, 195, 74); stroke: none; stroke-width: 0.1px; stroke-linecap: butt; --darkreader-inline-fill: var(--darkreader-text-8bc34a, #95c85a); --darkreader-inline-stroke: none;" transform="matrix(1,0,0,1,1,6)" class="S" points="1,0 3,0 3,1 2,1 2,2 0,2 0,1 1,1" data-darkreader-inline-fill="" data-darkreader-inline-stroke=""/><polygon style="fill: rgb(255, 193, 7); stroke: none; stroke-width: 0.1px; stroke-linecap: butt; --darkreader-inline-fill: var(--darkreader-text-ffc107, #ffc71e); --darkreader-inline-stroke: none;" transform="matrix(6.123233995736766e-17,1,-1,6.123233995736766e-17,3,4)" class="T" points="1,0 2,0 2,1 3,1 3,2 0,2 0,1 1,1" data-darkreader-inline-fill="" data-darkreader-inline-stroke=""/><polygon style="fill: rgb(76, 175, 80); stroke: none; stroke-width: 0.1px; stroke-linecap: butt; --darkreader-inline-fill: var(--darkreader-text-4caf50, #61ba65); --darkreader-inline-stroke: none;" transform="matrix(6.123233995736766e-17,1,-1,6.123233995736766e-17,6,2)" class="J" points="0,0 1,0 1,1 3,1 3,2 0,2" data-darkreader-inline-fill="" data-darkreader-inline-stroke=""/><polygon style="fill: rgb(244, 67, 54); stroke: none; stroke-width: 0.1px; stroke-linecap: butt; --darkreader-inline-fill: var(--darkreader-text-f44336, #f54e42); --darkreader-inline-stroke: none;" transform="matrix(1,0,0,1,4,0)" class="O" points="0,0 2,0 2,2 0,2" data-darkreader-inline-fill="" data-darkreader-inline-stroke=""/><polygon style="fill: rgb(0, 188, 212); stroke: none; stroke-width: 0.1px; stroke-linecap: butt; --darkreader-inline-fill: var(--darkreader-text-00bcd4, #38e8ff); --darkreader-inline-stroke: none;" transform="matrix(6.123233995736766e-17,1,-1,6.123233995736766e-17,1,4)" class="I" points="4,1 4,0 0,0 0,1" data-darkreader-inline-fill="" data-darkreader-inline-stroke=""/></g><g transform="matrix(1,0,0,1,7,0)"><rect style="fill: none; stroke: none; stroke-width: 1px; stroke-linecap: butt; --darkreader-inline-fill: none; --darkreader-inline-stroke: none;" class="base" y="8" x="-0.9" height="0.5" width="7.8" data-darkreader-inline-fill="" data-darkreader-inline-stroke=""/><polygon style="fill: rgb(255, 87, 34); stroke: none; stroke-width: 0.1px; stroke-linecap: butt; --darkreader-inline-fill: var(--darkreader-text-ff5722, #ff6331); --darkreader-inline-stroke: none;" transform="matrix(6.123233995736766e-17,1,-1,6.123233995736766e-17,6,5)" class="Z" points="0,0 2,0 2,1 3,1 3,2 1,2 1,1 0,1" data-darkreader-inline-fill="" data-darkreader-inline-stroke=""/><polygon style="fill: rgb(76, 175, 80); stroke: none; stroke-width: 0.1px; stroke-linecap: butt; --darkreader-inline-fill: var(--darkreader-text-4caf50, #61ba65); --darkreader-inline-stroke: none;" transform="matrix(1,0,0,1,1,6)" class="J" points="0,0 1,0 1,1 3,1 3,2 0,2" data-darkreader-inline-fill="" data-darkreader-inline-stroke=""/><polygon style="fill: rgb(0, 188, 212); stroke: none; stroke-width: 0.1px; stroke-linecap: butt; --darkreader-inline-fill: var(--darkreader-text-00bcd4, #38e8ff); --darkreader-inline-stroke: none;" transform="matrix(1,0,0,1,2,4)" class="I" points="4,1 4,0 0,0 0,1" data-darkreader-inline-fill="" data-darkreader-inline-stroke=""/><polygon style="fill: rgb(139, 195, 74); stroke: none; stroke-width: 0.1px; stroke-linecap: butt; --darkreader-inline-fill: var(--darkreader-text-8bc34a, #95c85a); --darkreader-inline-stroke: none;" transform="matrix(6.123233995736766e-17,1,-1,6.123233995736766e-17,5,1)" class="S" points="1,0 3,0 3,1 2,1 2,2 0,2 0,1 1,1" data-darkreader-inline-fill="" data-darkreader-inline-stroke=""/><polygon style="fill: rgb(244, 67, 54); stroke: none; stroke-width: 0.1px; stroke-linecap: butt; --darkreader-inline-fill: var(--darkreader-text-f44336, #f54e42); --darkreader-inline-stroke: none;" transform="matrix(1,0,0,1,0,4)" class="O" points="0,0 2,0 2,2 0,2" data-darkreader-inline-fill="" data-darkreader-inline-stroke=""/><polygon style="fill: rgb(63, 81, 181); stroke: none; stroke-width: 0.1px; stroke-linecap: butt; --darkreader-inline-fill: var(--darkreader-text-3f51b5, #6d95cc); --darkreader-inline-stroke: none;" transform="matrix(-1.8369701987210297e-16,-1,1,-1.8369701987210297e-16,2.220446049250313e-16,4)" class="L" points="0,1 2,1 2,0 3,0 3,2 0,2" data-darkreader-inline-fill="" data-darkreader-inline-stroke=""/><polygon style="fill: rgb(255, 193, 7); stroke: none; stroke-width: 0.1px; stroke-linecap: butt; --darkreader-inline-fill: var(--darkreader-text-ffc107, #ffc71e); --darkreader-inline-stroke: none;" transform="matrix(-1,1.2246467991473532e-16,-1.2246467991473532e-16,-1,4,2)" class="T" points="1,0 2,0 2,1 3,1 3,2 0,2 0,1 1,1" data-darkreader-inline-fill="" data-darkreader-inline-stroke=""/></g><g transform="matrix(1,0,0,1,14,0)"><rect style="fill: none; stroke: none; stroke-width: 1px; stroke-linecap: butt; --darkreader-inline-fill: none; --darkreader-inline-stroke: none;" class="base" y="8" x="-0.9" height="0.5" width="11.8" data-darkreader-inline-fill="" data-darkreader-inline-stroke=""/><polygon style="fill: rgb(244, 67, 54); stroke: none; stroke-width: 0.1px; stroke-linecap: butt; --darkreader-inline-fill: var(--darkreader-text-f44336, #f54e42); --darkreader-inline-stroke: none;" transform="matrix(1,0,0,1,4,6)" class="O" points="0,0 2,0 2,2 0,2" data-darkreader-inline-fill="" data-darkreader-inline-stroke=""/><polygon style="fill: rgb(63, 81, 181); stroke: none; stroke-width: 0.1px; stroke-linecap: butt; --darkreader-inline-fill: var(--darkreader-text-3f51b5, #6d95cc); --darkreader-inline-stroke: none;" transform="matrix(6.123233995736766e-17,1,-1,6.123233995736766e-17,6,3)" class="L" points="0,1 2,1 2,0 3,0 3,2 0,2" data-darkreader-inline-fill="" data-darkreader-inline-stroke=""/><polygon style="fill: rgb(0, 188, 212); stroke: none; stroke-width: 0.1px; stroke-linecap: butt; --darkreader-inline-fill: var(--darkreader-text-00bcd4, #38e8ff); --darkreader-inline-stroke: none;" transform="matrix(6.123233995736766e-17,1,-1,6.123233995736766e-17,6,1)" class="I" points="4,1 4,0 0,0 0,1" data-darkreader-inline-fill="" data-darkreader-inline-stroke=""/><polygon style="fill: rgb(255, 87, 34); stroke: none; stroke-width: 0.1px; stroke-linecap: butt; --darkreader-inline-fill: var(--darkreader-text-ff5722, #ff6331); --darkreader-inline-stroke: none;" transform="matrix(1,0,0,1,5,0)" class="Z" points="0,0 2,0 2,1 3,1 3,2 1,2 1,1 0,1" data-darkreader-inline-fill="" data-darkreader-inline-stroke=""/><polygon style="fill: rgb(255, 193, 7); stroke: none; stroke-width: 0.1px; stroke-linecap: butt; --darkreader-inline-fill: var(--darkreader-text-ffc107, #ffc71e); --darkreader-inline-stroke: none;" transform="matrix(-1,1.2246467991473532e-16,-1.2246467991473532e-16,-1,10,2)" class="T" points="1,0 2,0 2,1 3,1 3,2 0,2 0,1 1,1" data-darkreader-inline-fill="" data-darkreader-inline-stroke=""/><polygon style="fill: rgb(76, 175, 80); stroke: none; stroke-width: 0.1px; stroke-linecap: butt; --darkreader-inline-fill: var(--darkreader-text-4caf50, #61ba65); --darkreader-inline-stroke: none;" transform="matrix(-1,1.2246467991473532e-16,-1.2246467991473532e-16,-1,5,3)" class="J" points="0,0 1,0 1,1 3,1 3,2 0,2" data-darkreader-inline-fill="" data-darkreader-inline-stroke=""/><polygon style="fill: rgb(139, 195, 74); stroke: none; stroke-width: 0.1px; stroke-linecap: butt; --darkreader-inline-fill: var(--darkreader-text-8bc34a, #95c85a); --darkreader-inline-stroke: none;" transform="matrix(1,0,0,1,0,0)" class="S" points="1,0 3,0 3,1 2,1 2,2 0,2 0,1 1,1" data-darkreader-inline-fill="" data-darkreader-inline-stroke=""/></g><g transform="matrix(1,0,0,1,25,0)"><rect style="fill: none; stroke: none; stroke-width: 1px; stroke-linecap: butt; --darkreader-inline-fill: none; --darkreader-inline-stroke: none;" class="base" y="8" x="-0.9" height="0.5" width="6.8" data-darkreader-inline-fill="" data-darkreader-inline-stroke=""/><polygon style="fill: rgb(0, 188, 212); stroke: none; stroke-width: 0.1px; stroke-linecap: butt; --darkreader-inline-fill: var(--darkreader-text-00bcd4, #38e8ff); --darkreader-inline-stroke: none;" transform="matrix(1,0,0,1,1,7)" class="I" points="4,1 4,0 0,0 0,1" data-darkreader-inline-fill="" data-darkreader-inline-stroke=""/><polygon style="fill: rgb(255, 193, 7); stroke: none; stroke-width: 0.1px; stroke-linecap: butt; --darkreader-inline-fill: var(--darkreader-text-ffc107, #ffc71e); --darkreader-inline-stroke: none;" transform="matrix(6.123233995736766e-17,1,-1,6.123233995736766e-17,2,5)" class="T" points="1,0 2,0 2,1 3,1 3,2 0,2 0,1 1,1" data-darkreader-inline-fill="" data-darkreader-inline-stroke=""/><polygon style="fill: rgb(139, 195, 74); stroke: none; stroke-width: 0.1px; stroke-linecap: butt; --darkreader-inline-fill: var(--darkreader-text-8bc34a, #95c85a); --darkreader-inline-stroke: none;" transform="matrix(6.123233995736766e-17,1,-1,6.123233995736766e-17,3,4)" class="S" points="1,0 3,0 3,1 2,1 2,2 0,2 0,1 1,1" data-darkreader-inline-fill="" data-darkreader-inline-stroke=""/><polygon style="fill: rgb(63, 81, 181); stroke: none; stroke-width: 0.1px; stroke-linecap: butt; --darkreader-inline-fill: var(--darkreader-text-3f51b5, #6d95cc); --darkreader-inline-stroke: none;" transform="matrix(-1,1.2246467991473532e-16,-1.2246467991473532e-16,-1,5,5)" class="L" points="0,1 2,1 2,0 3,0 3,2 0,2" data-darkreader-inline-fill="" data-darkreader-inline-stroke=""/><polygon style="fill: rgb(255, 87, 34); stroke: none; stroke-width: 0.1px; stroke-linecap: butt; --darkreader-inline-fill: var(--darkreader-text-ff5722, #ff6331); --darkreader-inline-stroke: none;" transform="matrix(6.123233995736766e-17,1,-1,6.123233995736766e-17,3,1)" class="Z" points="0,0 2,0 2,1 3,1 3,2 1,2 1,1 0,1" data-darkreader-inline-fill="" data-darkreader-inline-stroke=""/><polygon style="fill: rgb(244, 67, 54); stroke: none; stroke-width: 0.1px; stroke-linecap: butt; --darkreader-inline-fill: var(--darkreader-text-f44336, #f54e42); --darkreader-inline-stroke: none;" transform="matrix(1,0,0,1,0,0)" class="O" points="0,0 2,0 2,2 0,2" data-darkreader-inline-fill="" data-darkreader-inline-stroke=""/><polygon style="fill: rgb(76, 175, 80); stroke: none; stroke-width: 0.1px; stroke-linecap: butt; --darkreader-inline-fill: var(--darkreader-text-4caf50, #61ba65); --darkreader-inline-stroke: none;" transform="matrix(-1,1.2246467991473532e-16,-1.2246467991473532e-16,-1,5,2)" class="J" points="0,0 1,0 1,1 3,1 3,2 0,2" data-darkreader-inline-fill="" data-darkreader-inline-stroke=""/></g><g transform="matrix(1,0,0,1,31,0)"><rect style="fill: none; stroke: none; stroke-width: 1px; stroke-linecap: butt; --darkreader-inline-fill: none; --darkreader-inline-stroke: none;" class="base" y="8" x="-0.9" height="0.5" width="11.8" data-darkreader-inline-fill="" data-darkreader-inline-stroke=""/><polygon style="fill: rgb(244, 67, 54); stroke: none; stroke-width: 0.1px; stroke-linecap: butt; --darkreader-inline-fill: var(--darkreader-text-f44336, #f54e42); --darkreader-inline-stroke: none;" transform="matrix(1,0,0,1,4,6)" class="O" points="0,0 2,0 2,2 0,2" data-darkreader-inline-fill="" data-darkreader-inline-stroke=""/><polygon style="fill: rgb(63, 81, 181); stroke: none; stroke-width: 0.1px; stroke-linecap: butt; --darkreader-inline-fill: var(--darkreader-text-3f51b5, #6d95cc); --darkreader-inline-stroke: none;" transform="matrix(6.123233995736766e-17,1,-1,6.123233995736766e-17,6,3)" class="L" points="0,1 2,1 2,0 3,0 3,2 0,2" data-darkreader-inline-fill="" data-darkreader-inline-stroke=""/><polygon style="fill: rgb(0, 188, 212); stroke: none; stroke-width: 0.1px; stroke-linecap: butt; --darkreader-inline-fill: var(--darkreader-text-00bcd4, #38e8ff); --darkreader-inline-stroke: none;" transform="matrix(6.123233995736766e-17,1,-1,6.123233995736766e-17,6,1)" class="I" points="4,1 4,0 0,0 0,1" data-darkreader-inline-fill="" data-darkreader-inline-stroke=""/><polygon style="fill: rgb(255, 87, 34); stroke: none; stroke-width: 0.1px; stroke-linecap: butt; --darkreader-inline-fill: var(--darkreader-text-ff5722, #ff6331); --darkreader-inline-stroke: none;" transform="matrix(1,0,0,1,5,0)" class="Z" points="0,0 2,0 2,1 3,1 3,2 1,2 1,1 0,1" data-darkreader-inline-fill="" data-darkreader-inline-stroke=""/><polygon style="fill: rgb(255, 193, 7); stroke: none; stroke-width: 0.1px; stroke-linecap: butt; --darkreader-inline-fill: var(--darkreader-text-ffc107, #ffc71e); --darkreader-inline-stroke: none;" transform="matrix(-1,1.2246467991473532e-16,-1.2246467991473532e-16,-1,10,2)" class="T" points="1,0 2,0 2,1 3,1 3,2 0,2 0,1 1,1" data-darkreader-inline-fill="" data-darkreader-inline-stroke=""/><polygon style="fill: rgb(76, 175, 80); stroke: none; stroke-width: 0.1px; stroke-linecap: butt; --darkreader-inline-fill: var(--darkreader-text-4caf50, #61ba65); --darkreader-inline-stroke: none;" transform="matrix(-1,1.2246467991473532e-16,-1.2246467991473532e-16,-1,5,3)" class="J" points="0,0 1,0 1,1 3,1 3,2 0,2" data-darkreader-inline-fill="" data-darkreader-inline-stroke=""/><polygon style="fill: rgb(139, 195, 74); stroke: none; stroke-width: 0.1px; stroke-linecap: butt; --darkreader-inline-fill: var(--darkreader-text-8bc34a, #95c85a); --darkreader-inline-stroke: none;" transform="matrix(1,0,0,1,0,0)" class="S" points="1,0 3,0 3,1 2,1 2,2 0,2 0,1 1,1" data-darkreader-inline-fill="" data-darkreader-inline-stroke=""/></g><g transform="matrix(1,0,0,1,42,0)"><rect style="fill: none; stroke: none; stroke-width: 1px; stroke-linecap: butt; --darkreader-inline-fill: none; --darkreader-inline-stroke: none;" class="base" y="8" x="-0.9" height="0.5" width="6.8" data-darkreader-inline-fill="" data-darkreader-inline-stroke=""/><polygon style="fill: rgb(0, 188, 212); stroke: none; stroke-width: 0.1px; stroke-linecap: butt; --darkreader-inline-fill: var(--darkreader-text-00bcd4, #38e8ff); --darkreader-inline-stroke: none;" transform="matrix(6.123233995736766e-17,1,-1,6.123233995736766e-17,1,4)" class="I" points="4,1 4,0 0,0 0,1" data-darkreader-inline-fill="" data-darkreader-inline-stroke=""/><polygon style="fill: rgb(255, 193, 7); stroke: none; stroke-width: 0.1px; stroke-linecap: butt; --darkreader-inline-fill: var(--darkreader-text-ffc107, #ffc71e); --darkreader-inline-stroke: none;" transform="matrix(-1.8369701987210297e-16,-1,1,-1.8369701987210297e-16,2.220446049250313e-16,5)" class="T" points="1,0 2,0 2,1 3,1 3,2 0,2 0,1 1,1" data-darkreader-inline-fill="" data-darkreader-inline-stroke=""/><polygon style="fill: rgb(255, 87, 34); stroke: none; stroke-width: 0.1px; stroke-linecap: butt; --darkreader-inline-fill: var(--darkreader-text-ff5722, #ff6331); --darkreader-inline-stroke: none;" transform="matrix(6.123233995736766e-17,1,-1,6.123233995736766e-17,2,0)" class="Z" points="0,0 2,0 2,1 3,1 3,2 1,2 1,1 0,1" data-darkreader-inline-fill="" data-darkreader-inline-stroke=""/><polygon style="fill: rgb(139, 195, 74); stroke: none; stroke-width: 0.1px; stroke-linecap: butt; --darkreader-inline-fill: var(--darkreader-text-8bc34a, #95c85a); --darkreader-inline-stroke: none;" transform="matrix(6.123233995736766e-17,1,-1,6.123233995736766e-17,5,5)" class="S" points="1,0 3,0 3,1 2,1 2,2 0,2 0,1 1,1" data-darkreader-inline-fill="" data-darkreader-inline-stroke=""/><polygon style="fill: rgb(63, 81, 181); stroke: none; stroke-width: 0.1px; stroke-linecap: butt; --darkreader-inline-fill: var(--darkreader-text-3f51b5, #6d95cc); --darkreader-inline-stroke: none;" transform="matrix(-1,1.2246467991473532e-16,-1.2246467991473532e-16,-1,5,6)" class="L" points="0,1 2,1 2,0 3,0 3,2 0,2" data-darkreader-inline-fill="" data-darkreader-inline-stroke=""/><polygon style="fill: rgb(244, 67, 54); stroke: none; stroke-width: 0.1px; stroke-linecap: butt; --darkreader-inline-fill: var(--darkreader-text-f44336, #f54e42); --darkreader-inline-stroke: none;" transform="matrix(1,0,0,1,3,2)" class="O" points="0,0 2,0 2,2 0,2" data-darkreader-inline-fill="" data-darkreader-inline-stroke=""/><polygon style="fill: rgb(76, 175, 80); stroke: none; stroke-width: 0.1px; stroke-linecap: butt; --darkreader-inline-fill: var(--darkreader-text-4caf50, #61ba65); --darkreader-inline-stroke: none;" transform="matrix(-1,1.2246467991473532e-16,-1.2246467991473532e-16,-1,5,2)" class="J" points="0,0 1,0 1,1 3,1 3,2 0,2" data-darkreader-inline-fill="" data-darkreader-inline-stroke=""/></g><g transform="matrix(1,0,0,1,48,0)"><rect style="fill: none; stroke: none; stroke-width: 1px; stroke-linecap: butt; --darkreader-inline-fill: none; --darkreader-inline-stroke: none;" class="base" y="8" x="-0.9" height="0.5" width="7.8" data-darkreader-inline-fill="" data-darkreader-inline-stroke=""/><polygon style="fill: rgb(255, 193, 7); stroke: none; stroke-width: 0.1px; stroke-linecap: butt; --darkreader-inline-fill: var(--darkreader-text-ffc107, #ffc71e); --darkreader-inline-stroke: none;" transform="matrix(1,0,0,1,0,6)" class="T" points="1,0 2,0 2,1 3,1 3,2 0,2 0,1 1,1" data-darkreader-inline-fill="" data-darkreader-inline-stroke=""/><polygon style="fill: rgb(255, 87, 34); stroke: none; stroke-width: 0.1px; stroke-linecap: butt; --darkreader-inline-fill: var(--darkreader-text-ff5722, #ff6331); --darkreader-inline-stroke: none;" transform="matrix(1,0,0,1,2,6)" class="Z" points="0,0 2,0 2,1 3,1 3,2 1,2 1,1 0,1" data-darkreader-inline-fill="" data-darkreader-inline-stroke=""/><polygon style="fill: rgb(63, 81, 181); stroke: none; stroke-width: 0.1px; stroke-linecap: butt; --darkreader-inline-fill: var(--darkreader-text-3f51b5, #6d95cc); --darkreader-inline-stroke: none;" transform="matrix(6.123233995736766e-17,1,-1,6.123233995736766e-17,4,3)" class="L" points="0,1 2,1 2,0 3,0 3,2 0,2" data-darkreader-inline-fill="" data-darkreader-inline-stroke=""/><polygon style="fill: rgb(76, 175, 80); stroke: none; stroke-width: 0.1px; stroke-linecap: butt; --darkreader-inline-fill: var(--darkreader-text-4caf50, #61ba65); --darkreader-inline-stroke: none;" transform="matrix(6.123233995736766e-17,1,-1,6.123233995736766e-17,5,2)" class="J" points="0,0 1,0 1,1 3,1 3,2 0,2" data-darkreader-inline-fill="" data-darkreader-inline-stroke=""/><polygon style="fill: rgb(139, 195, 74); stroke: none; stroke-width: 0.1px; stroke-linecap: butt; --darkreader-inline-fill: var(--darkreader-text-8bc34a, #95c85a); --darkreader-inline-stroke: none;" transform="matrix(1,0,0,1,3,0)" class="S" points="1,0 3,0 3,1 2,1 2,2 0,2 0,1 1,1" data-darkreader-inline-fill="" data-darkreader-inline-stroke=""/><polygon style="fill: rgb(244, 67, 54); stroke: none; stroke-width: 0.1px; stroke-linecap: butt; --darkreader-inline-fill: var(--darkreader-text-f44336, #f54e42); --darkreader-inline-stroke: none;" transform="matrix(1,0,0,1,1,1)" class="O" points="0,0 2,0 2,2 0,2" data-darkreader-inline-fill="" data-darkreader-inline-stroke=""/><polygon style="fill: rgb(0, 188, 212); stroke: none; stroke-width: 0.1px; stroke-linecap: butt; --darkreader-inline-fill: var(--darkreader-text-00bcd4, #38e8ff); --darkreader-inline-stroke: none;" transform="matrix(1,0,0,1,0,0)" class="I" points="4,1 4,0 0,0 0,1" data-darkreader-inline-fill="" data-darkreader-inline-stroke=""/></g><g transform="matrix(1,0,0,1,55,0)"><rect style="fill: none; stroke: none; stroke-width: 1px; stroke-linecap: butt; --darkreader-inline-fill: none; --darkreader-inline-stroke: none;" class="base" y="8" x="-0.9" height="0.5" width="6.8" data-darkreader-inline-fill="" data-darkreader-inline-stroke=""/><polygon style="fill: rgb(63, 81, 181); stroke: none; stroke-width: 0.1px; stroke-linecap: butt; --darkreader-inline-fill: var(--darkreader-text-3f51b5, #6d95cc); --darkreader-inline-stroke: none;" transform="matrix(1,0,0,1,2,6)" class="L" points="0,1 2,1 2,0 3,0 3,2 0,2" data-darkreader-inline-fill="" data-darkreader-inline-stroke=""/><polygon style="fill: rgb(255, 87, 34); stroke: none; stroke-width: 0.1px; stroke-linecap: butt; --darkreader-inline-fill: var(--darkreader-text-ff5722, #ff6331); --darkreader-inline-stroke: none;" transform="matrix(6.123233995736766e-17,1,-1,6.123233995736766e-17,5,4)" class="Z" points="0,0 2,0 2,1 3,1 3,2 1,2 1,1 0,1" data-darkreader-inline-fill="" data-darkreader-inline-stroke=""/><polygon style="fill: rgb(255, 193, 7); stroke: none; stroke-width: 0.1px; stroke-linecap: butt; --darkreader-inline-fill: var(--darkreader-text-ffc107, #ffc71e); --darkreader-inline-stroke: none;" transform="matrix(-1,1.2246467991473532e-16,-1.2246467991473532e-16,-1,3,8)" class="T" points="1,0 2,0 2,1 3,1 3,2 0,2 0,1 1,1" data-darkreader-inline-fill="" data-darkreader-inline-stroke=""/><polygon style="fill: rgb(139, 195, 74); stroke: none; stroke-width: 0.1px; stroke-linecap: butt; --darkreader-inline-fill: var(--darkreader-text-8bc34a, #95c85a); --darkreader-inline-stroke: none;" transform="matrix(1,0,0,1,2,3)" class="S" points="1,0 3,0 3,1 2,1 2,2 0,2 0,1 1,1" data-darkreader-inline-fill="" data-darkreader-inline-stroke=""/><polygon style="fill: rgb(76, 175, 80); stroke: none; stroke-width: 0.1px; stroke-linecap: butt; --darkreader-inline-fill: var(--darkreader-text-4caf50, #61ba65); --darkreader-inline-stroke: none;" transform="matrix(-1.8369701987210297e-16,-1,1,-1.8369701987210297e-16,1.0000000000000002,4)" class="J" points="0,0 1,0 1,1 3,1 3,2 0,2" data-darkreader-inline-fill="" data-darkreader-inline-stroke=""/><polygon style="fill: rgb(244, 67, 54); stroke: none; stroke-width: 0.1px; stroke-linecap: butt; --darkreader-inline-fill: var(--darkreader-text-f44336, #f54e42); --darkreader-inline-stroke: none;" transform="matrix(1,0,0,1,0,1)" class="O" points="0,0 2,0 2,2 0,2" data-darkreader-inline-fill="" data-darkreader-inline-stroke=""/><polygon style="fill: rgb(0, 188, 212); stroke: none; stroke-width: 0.1px; stroke-linecap: butt; --darkreader-inline-fill: var(--darkreader-text-00bcd4, #38e8ff); --darkreader-inline-stroke: none;" transform="matrix(1,0,0,1,1,0)" class="I" points="4,1 4,0 0,0 0,1" data-darkreader-inline-fill="" data-darkreader-inline-stroke=""/></g></svg>